<svg xmlns="http://www.w3.org/2000/svg" xmlns:xlink="http://www.w3.org/1999/xlink" width="283" zoomAndPan="magnify" viewBox="0 0 212.25 180.749999" height="241" preserveAspectRatio="xMidYMid meet" version="1.0"><defs><g/><clipPath id="ee8affb24e"><path d="M 60.101562 54.4375 L 146.792969 54.4375 L 146.792969 179.996094 L 60.101562 179.996094 Z M 60.101562 54.4375 " clip-rule="nonzero"/></clipPath></defs><g fill="#0090e7" fill-opacity="1"><g transform="translate(35.520777, 99.151851)"><g><path d="M 21.59375 -43.640625 C 16.050781 -43.640625 13.28125 -41.804688 13.28125 -38.140625 C 13.28125 -36.515625 13.960938 -35.269531 15.328125 -34.40625 C 16.703125 -33.539062 19.921875 -32.296875 24.984375 -30.671875 C 30.046875 -29.046875 33.59375 -27.203125 35.625 -25.140625 C 37.664062 -23.078125 38.6875 -19.910156 38.6875 -15.640625 C 38.6875 -10.203125 37.03125 -6.082031 33.71875 -3.28125 C 30.414062 -0.476562 26.09375 0.921875 20.75 0.921875 C 16.78125 0.921875 11.925781 0.304688 6.1875 -0.921875 L 3.4375 -1.453125 L 4.5 -9.609375 C 11.3125 -8.691406 16.523438 -8.234375 20.140625 -8.234375 C 25.535156 -8.234375 28.234375 -10.472656 28.234375 -14.953125 C 28.234375 -16.578125 27.609375 -17.847656 26.359375 -18.765625 C 25.109375 -19.679688 22.628906 -20.675781 18.921875 -21.75 C 13.023438 -23.425781 8.867188 -25.421875 6.453125 -27.734375 C 4.035156 -30.046875 2.828125 -33.265625 2.828125 -37.390625 C 2.828125 -42.578125 4.398438 -46.441406 7.546875 -48.984375 C 10.703125 -51.523438 15.03125 -52.796875 20.53125 -52.796875 C 24.289062 -52.796875 29.070312 -52.285156 34.875 -51.265625 L 37.609375 -50.734375 L 36.78125 -42.421875 C 29.601562 -43.234375 24.539062 -43.640625 21.59375 -43.640625 Z M 21.59375 -43.640625 "/></g></g></g><g clip-path="url(#ee8affb24e)"><path fill="#0090e7" d="M 103.453125 180.101562 C 79.570312 180.101562 60.179688 160.707031 60.179688 136.824219 C 60.179688 113.710938 100.003906 57.726562 101.644531 55.371094 C 102.082031 54.769531 102.742188 54.4375 103.453125 54.4375 C 104.164062 54.4375 104.824219 54.769531 105.261719 55.371094 C 106.902344 57.726562 146.726562 113.710938 146.726562 136.824219 C 146.726562 160.707031 127.335938 180.101562 103.453125 180.101562 Z M 103.453125 60.464844 C 95.621094 71.75 64.558594 117.761719 64.558594 136.824219 C 64.558594 158.242188 82.035156 175.71875 103.453125 175.71875 C 124.871094 175.71875 142.34375 158.242188 142.34375 136.824219 C 142.34375 117.761719 111.285156 71.75 103.453125 60.464844 Z M 114.957031 165.035156 C 131.773438 160.050781 130.566406 141.097656 130.511719 140.933594 C 130.402344 139.730469 129.363281 138.796875 128.15625 138.90625 C 126.953125 139.015625 126.023438 140.058594 126.132812 141.261719 C 126.1875 141.921875 127.0625 156.875 113.695312 160.875 C 112.546875 161.203125 111.890625 162.460938 112.21875 163.613281 C 112.492188 164.542969 113.367188 165.199219 114.300781 165.199219 C 114.519531 165.089844 114.738281 165.089844 114.957031 165.035156 Z M 114.957031 165.035156 " fill-opacity="1" fill-rule="nonzero"/></g><g fill="#0090e7" fill-opacity="1"><g transform="translate(130.300817, 99.151851)"><g><path d="M 23.125 0 L 5.640625 0 L 5.640625 -51.875 L 23.125 -51.875 C 27.59375 -51.875 31.273438 -51.40625 34.171875 -50.46875 C 37.078125 -49.53125 39.332031 -47.976562 40.9375 -45.8125 C 42.539062 -43.65625 43.644531 -41.113281 44.25 -38.1875 C 44.863281 -35.257812 45.171875 -31.457031 45.171875 -26.78125 C 45.171875 -22.101562 44.890625 -18.222656 44.328125 -15.140625 C 43.765625 -12.066406 42.707031 -9.320312 41.15625 -6.90625 C 39.601562 -4.488281 37.351562 -2.734375 34.40625 -1.640625 C 31.457031 -0.546875 27.695312 0 23.125 0 Z M 34.1875 -20.59375 C 34.28125 -22.226562 34.328125 -24.476562 34.328125 -27.34375 C 34.328125 -30.21875 34.222656 -32.519531 34.015625 -34.25 C 33.816406 -35.976562 33.335938 -37.554688 32.578125 -38.984375 C 31.816406 -40.410156 30.6875 -41.390625 29.1875 -41.921875 C 27.6875 -42.453125 25.664062 -42.71875 23.125 -42.71875 L 16.171875 -42.71875 L 16.171875 -9.15625 L 23.125 -9.15625 C 26.9375 -9.15625 29.707031 -10.125 31.4375 -12.0625 C 32.90625 -13.632812 33.820312 -16.476562 34.1875 -20.59375 Z M 34.1875 -20.59375 "/></g></g></g></svg>