<svg xmlns="http://www.w3.org/2000/svg" xmlns:xlink="http://www.w3.org/1999/xlink" width="569" zoomAndPan="magnify" viewBox="0 0 426.75 143.249994" height="191" preserveAspectRatio="xMidYMid meet" version="1.0"><defs><g/><clipPath id="a6d7ee5266"><path d="M 312.789062 52.773438 L 347.09375 52.773438 L 347.09375 102.667969 L 312.789062 102.667969 Z M 312.789062 52.773438 " clip-rule="nonzero"/></clipPath></defs><g fill="#0090e7" fill-opacity="1"><g transform="translate(28.496039, 98.790623)"><g><path d="M 21.5625 -43.578125 C 16.019531 -43.578125 13.25 -41.75 13.25 -38.09375 C 13.25 -36.46875 13.9375 -35.222656 15.3125 -34.359375 C 16.6875 -33.492188 19.898438 -32.25 24.953125 -30.625 C 30.003906 -29 33.546875 -27.15625 35.578125 -25.09375 C 37.609375 -23.039062 38.625 -19.878906 38.625 -15.609375 C 38.625 -10.179688 36.972656 -6.066406 33.671875 -3.265625 C 30.367188 -0.472656 26.050781 0.921875 20.71875 0.921875 C 16.757812 0.921875 11.910156 0.304688 6.171875 -0.921875 L 3.421875 -1.453125 L 4.5 -9.59375 C 11.300781 -8.6875 16.503906 -8.234375 20.109375 -8.234375 C 25.492188 -8.234375 28.1875 -10.46875 28.1875 -14.9375 C 28.1875 -16.5625 27.5625 -17.828125 26.3125 -18.734375 C 25.070312 -19.648438 22.597656 -20.640625 18.890625 -21.703125 C 13.003906 -23.378906 8.851562 -25.375 6.4375 -27.6875 C 4.019531 -30 2.8125 -33.210938 2.8125 -37.328125 C 2.8125 -42.503906 4.382812 -46.363281 7.53125 -48.90625 C 10.6875 -51.445312 15.003906 -52.71875 20.484375 -52.71875 C 24.242188 -52.71875 29.019531 -52.207031 34.8125 -51.1875 L 37.546875 -50.65625 L 36.71875 -42.359375 C 29.550781 -43.171875 24.5 -43.578125 21.5625 -43.578125 Z M 21.5625 -43.578125 "/></g></g></g><g fill="#0090e7" fill-opacity="1"><g transform="translate(69.931761, 98.790623)"><g><path d="M 14.9375 0 L 4.71875 0 L 4.71875 -38.09375 L 14.859375 -38.09375 L 14.859375 -35.953125 C 18.359375 -37.984375 21.351562 -39 23.84375 -39 C 27.957031 -39 31.128906 -37.804688 33.359375 -35.421875 C 38.035156 -37.804688 42.300781 -39 46.15625 -39 C 51.1875 -39 54.675781 -37.535156 56.625 -34.609375 C 58.582031 -31.691406 59.5625 -27.035156 59.5625 -20.640625 L 59.5625 0 L 49.359375 0 L 49.359375 -20.34375 C 49.359375 -23.59375 49.003906 -25.988281 48.296875 -27.53125 C 47.585938 -29.082031 46.164062 -29.859375 44.03125 -29.859375 C 42.40625 -29.859375 40.425781 -29.503906 38.09375 -28.796875 L 36.9375 -28.40625 C 37.144531 -24.601562 37.25 -21.710938 37.25 -19.734375 L 37.25 0 L 27.046875 0 L 27.046875 -19.578125 C 27.046875 -23.335938 26.710938 -25.988281 26.046875 -27.53125 C 25.390625 -29.082031 23.941406 -29.859375 21.703125 -29.859375 C 19.722656 -29.859375 17.769531 -29.503906 15.84375 -28.796875 L 14.9375 -28.484375 Z M 14.9375 0 "/></g></g></g><g fill="#0090e7" fill-opacity="1"><g transform="translate(133.837214, 98.790623)"><g><path d="M 33.890625 -26.203125 L 33.890625 -10.359375 C 33.992188 -9.140625 34.195312 -8.285156 34.5 -7.796875 C 34.8125 -7.316406 35.445312 -6.976562 36.40625 -6.78125 L 36.109375 0.921875 C 33.515625 0.921875 31.441406 0.738281 29.890625 0.375 C 28.347656 0.0195312 26.789062 -0.6875 25.21875 -1.75 C 21.5625 0.03125 17.828125 0.921875 14.015625 0.921875 C 6.140625 0.921875 2.203125 -3.242188 2.203125 -11.578125 C 2.203125 -15.640625 3.296875 -18.519531 5.484375 -20.21875 C 7.671875 -21.925781 11.023438 -22.929688 15.546875 -23.234375 L 23.6875 -23.84375 L 23.6875 -26.203125 C 23.6875 -27.773438 23.332031 -28.851562 22.625 -29.4375 C 21.914062 -30.019531 20.773438 -30.3125 19.203125 -30.3125 L 4.875 -29.703125 L 4.578125 -36.796875 C 10.003906 -38.265625 15.164062 -39 20.0625 -39 C 24.96875 -39 28.5 -37.984375 30.65625 -35.953125 C 32.8125 -33.921875 33.890625 -30.671875 33.890625 -26.203125 Z M 16.765625 -16.15625 C 13.921875 -15.894531 12.5 -14.367188 12.5 -11.578125 C 12.5 -8.785156 13.738281 -7.390625 16.21875 -7.390625 C 18.15625 -7.390625 20.265625 -7.691406 22.546875 -8.296875 L 23.6875 -8.609375 L 23.6875 -16.765625 Z M 16.765625 -16.15625 "/></g></g></g><g fill="#0090e7" fill-opacity="1"><g transform="translate(172.759366, 98.790623)"><g><path d="M 4.71875 0 L 4.71875 -38.09375 L 14.859375 -38.09375 L 14.859375 -34.046875 C 19.117188 -36.585938 23.179688 -38.238281 27.046875 -39 L 27.046875 -28.71875 C 22.929688 -27.851562 19.398438 -26.960938 16.453125 -26.046875 L 14.9375 -25.515625 L 14.9375 0 Z M 4.71875 0 "/></g></g></g><g fill="#0090e7" fill-opacity="1"><g transform="translate(201.09408, 98.790623)"><g><path d="M 25.828125 -29.40625 L 16.453125 -29.40625 L 16.453125 -13.78125 C 16.453125 -12.257812 16.488281 -11.179688 16.5625 -10.546875 C 16.644531 -9.910156 16.925781 -9.363281 17.40625 -8.90625 C 17.882812 -8.457031 18.632812 -8.234375 19.65625 -8.234375 L 25.4375 -8.375 L 25.90625 -0.234375 C 22.5 0.535156 19.90625 0.921875 18.125 0.921875 C 13.5625 0.921875 10.441406 -0.101562 8.765625 -2.15625 C 7.085938 -4.21875 6.25 -8.019531 6.25 -13.5625 L 6.25 -29.40625 L 1.75 -29.40625 L 1.75 -38.09375 L 6.25 -38.09375 L 6.25 -48.671875 L 16.453125 -48.671875 L 16.453125 -38.09375 L 25.828125 -38.09375 Z M 25.828125 -29.40625 "/></g></g></g><g fill="#0090e7" fill-opacity="1"><g transform="translate(228.81946, 98.790623)"><g><path d="M 23.078125 0 L 5.640625 0 L 5.640625 -51.796875 L 23.078125 -51.796875 C 27.546875 -51.796875 31.226562 -51.328125 34.125 -50.390625 C 37.019531 -49.453125 39.265625 -47.898438 40.859375 -45.734375 C 42.460938 -43.578125 43.566406 -41.039062 44.171875 -38.125 C 44.785156 -35.207031 45.09375 -31.410156 45.09375 -26.734375 C 45.09375 -22.066406 44.8125 -18.195312 44.25 -15.125 C 43.695312 -12.050781 42.644531 -9.304688 41.09375 -6.890625 C 39.539062 -4.484375 37.289062 -2.734375 34.34375 -1.640625 C 31.40625 -0.546875 27.648438 0 23.078125 0 Z M 34.125 -20.5625 C 34.226562 -22.1875 34.28125 -24.429688 34.28125 -27.296875 C 34.28125 -30.171875 34.175781 -32.472656 33.96875 -34.203125 C 33.769531 -35.929688 33.289062 -37.503906 32.53125 -38.921875 C 31.769531 -40.347656 30.640625 -41.328125 29.140625 -41.859375 C 27.640625 -42.390625 25.617188 -42.65625 23.078125 -42.65625 L 16.15625 -42.65625 L 16.15625 -9.140625 L 23.078125 -9.140625 C 26.890625 -9.140625 29.660156 -10.101562 31.390625 -12.03125 C 32.859375 -13.601562 33.769531 -16.445312 34.125 -20.5625 Z M 34.125 -20.5625 "/></g></g></g><g fill="#0090e7" fill-opacity="1"><g transform="translate(277.415008, 98.790623)"><g><path d="M 4.71875 0 L 4.71875 -38.09375 L 14.859375 -38.09375 L 14.859375 -34.046875 C 19.117188 -36.585938 23.179688 -38.238281 27.046875 -39 L 27.046875 -28.71875 C 22.929688 -27.851562 19.398438 -26.960938 16.453125 -26.046875 L 14.9375 -25.515625 L 14.9375 0 Z M 4.71875 0 "/></g></g></g><g fill="#0090e7" fill-opacity="1"><g transform="translate(305.752572, 98.790623)"><g/></g></g><g fill="#0090e7" fill-opacity="1"><g transform="translate(322.50966, 98.790623)"><g/></g></g><g fill="#0090e7" fill-opacity="1"><g transform="translate(339.269713, 98.790623)"><g><path d="M 4.71875 16 L 4.71875 -38.09375 L 14.859375 -38.09375 L 14.859375 -36.03125 C 18.160156 -38.007812 21.050781 -39 23.53125 -39 C 28.664062 -39 32.453125 -37.460938 34.890625 -34.390625 C 37.328125 -31.316406 38.546875 -26.097656 38.546875 -18.734375 C 38.546875 -11.367188 37.195312 -6.25 34.5 -3.375 C 31.8125 -0.507812 27.394531 0.921875 21.25 0.921875 C 19.570312 0.921875 17.769531 0.765625 15.84375 0.453125 L 14.9375 0.3125 L 14.9375 16 Z M 21.5625 -29.859375 C 19.675781 -29.859375 17.769531 -29.476562 15.84375 -28.71875 L 14.9375 -28.34375 L 14.9375 -8.375 C 17.21875 -8.070312 19.066406 -7.921875 20.484375 -7.921875 C 23.429688 -7.921875 25.453125 -8.785156 26.546875 -10.515625 C 27.640625 -12.242188 28.1875 -15.1875 28.1875 -19.34375 C 28.1875 -26.351562 25.976562 -29.859375 21.5625 -29.859375 Z M 21.5625 -29.859375 "/></g></g></g><g fill="#0090e7" fill-opacity="1"><g transform="translate(380.708679, 98.790623)"><g/></g></g><g clip-path="url(#a6d7ee5266)"><path fill="#0090e7" d="M 329.960938 102.542969 C 320.5 102.542969 312.820312 94.863281 312.820312 85.40625 C 312.820312 76.25 328.59375 54.074219 329.246094 53.144531 C 329.417969 52.902344 329.679688 52.773438 329.960938 52.773438 C 330.242188 52.773438 330.503906 52.902344 330.675781 53.144531 C 331.328125 54.074219 347.101562 76.25 347.101562 85.40625 C 347.101562 94.863281 339.421875 102.542969 329.960938 102.542969 Z M 329.960938 55.160156 C 326.859375 59.628906 314.558594 77.855469 314.558594 85.40625 C 314.558594 93.886719 321.476562 100.808594 329.960938 100.808594 C 338.445312 100.808594 345.367188 93.886719 345.367188 85.40625 C 345.367188 77.855469 333.0625 59.628906 329.960938 55.160156 Z M 334.515625 96.578125 C 341.179688 94.605469 340.699219 87.097656 340.679688 87.03125 C 340.636719 86.554688 340.222656 86.1875 339.746094 86.230469 C 339.269531 86.273438 338.898438 86.683594 338.941406 87.164062 C 338.964844 87.421875 339.3125 93.34375 334.019531 94.929688 C 333.5625 95.058594 333.300781 95.558594 333.433594 96.015625 C 333.539062 96.382812 333.886719 96.644531 334.257812 96.644531 C 334.34375 96.601562 334.429688 96.601562 334.515625 96.578125 Z M 334.515625 96.578125 " fill-opacity="1" fill-rule="nonzero"/></g></svg>