<svg xmlns="http://www.w3.org/2000/svg" xmlns:xlink="http://www.w3.org/1999/xlink" width="500" zoomAndPan="magnify" viewBox="0 0 375 374.999991" height="500" preserveAspectRatio="xMidYMid meet" version="1.0"><defs><clipPath id="bb30efcbd3"><path d="M 59.585938 2.117188 L 315.335938 2.117188 L 315.335938 372.617188 L 59.585938 372.617188 Z M 59.585938 2.117188 " clip-rule="nonzero"/></clipPath></defs><g clip-path="url(#bb30efcbd3)"><path fill="#0090e7" d="M 187.496094 372.875 C 117.03125 372.875 59.816406 315.664062 59.816406 245.195312 C 59.816406 176.992188 177.316406 11.816406 182.164062 4.867188 C 183.457031 3.089844 185.394531 2.117188 187.496094 2.117188 C 189.597656 2.117188 191.539062 3.089844 192.832031 4.867188 C 197.679688 11.816406 315.175781 176.992188 315.175781 245.195312 C 315.175781 315.664062 257.964844 372.875 187.496094 372.875 Z M 187.496094 19.898438 C 164.386719 53.191406 72.746094 188.953125 72.746094 245.195312 C 72.746094 308.390625 124.304688 359.945312 187.496094 359.945312 C 250.691406 359.945312 302.246094 308.390625 302.246094 245.195312 C 302.246094 188.953125 210.609375 53.191406 187.496094 19.898438 Z M 221.4375 328.429688 C 271.054688 313.722656 267.5 257.800781 267.335938 257.316406 C 267.015625 253.761719 263.941406 251.015625 260.386719 251.335938 C 256.832031 251.660156 254.085938 254.730469 254.40625 258.285156 C 254.570312 260.226562 257.15625 304.347656 217.71875 316.148438 C 214.324219 317.117188 212.386719 320.835938 213.355469 324.226562 C 214.164062 326.976562 216.75 328.914062 219.496094 328.914062 C 220.144531 328.59375 220.789062 328.59375 221.4375 328.429688 Z M 221.4375 328.429688 " fill-opacity="1" fill-rule="nonzero"/></g></svg>